{
    "asset" : {
        "generator" : "Khronos glTF Blender I/O v1.6.16",
        "version" : "2.0"
    },
    "scene" : 0,
    "scenes" : [
        {
            "name" : "Scene",
            "nodes" : [
                0,
                1,
                2,
                3,
                4,
                5,
                6,
                7,
                8,
                9,
                10,
                11,
                12
            ]
        }
    ],
    "nodes" : [
        {
            "name" : "Light",
            "rotation" : [
                -0.43209007382392883,
                0.6587510704994202,
                -0.5025030970573425,
                0.3561401665210724
            ],
            "translation" : [
                3.659499168395996,
                2.092085123062134,
                7.03513765335083
            ]
        },
        {
            "mesh" : 0,
            "name" : "birthday",
            "rotation" : [
                0.6719291806221008,
                -0.013811338692903519,
                0.015217309817671776,
                0.7403303384780884
            ],
            "translation" : [
                -4.107183933258057,
                1.678377389907837,
                0
            ]
        },
        {
            "name" : "Light.001",
            "rotation" : [
                -0.43209007382392883,
                0.6587510704994202,
                -0.5025030970573425,
                0.3561401665210724
            ],
            "translation" : [
                -3.512120246887207,
                1.808191180229187,
                6.304651260375977
            ]
        },
        {
            "mesh" : 1,
            "name" : "blu1",
            "rotation" : [
                0,
                0,
                0.012442784383893013,
                0.9999226927757263
            ],
            "scale" : [
                0.6295273900032043,
                0.6295055747032166,
                0.6360954642295837
            ],
            "translation" : [
                -3.0977654457092285,
                0.4016053080558777,
                3.391024589538574
            ]
        },
        {
            "name" : "Wind",
            "translation" : [
                -2.6939592361450195,
                -1.4658231735229492,
                3.4096970558166504
            ]
        },
        {
            "mesh" : 2,
            "name" : "pur1",
            "rotation" : [
                0.2674660086631775,
                0,
                0,
                0.963567316532135
            ],
            "scale" : [
                0.6295273900032043,
                0.6295055747032166,
                0.6360954642295837
            ],
            "translation" : [
                -2.414001703262329,
                0.3200996518135071,
                2.850076675415039
            ]
        },
        {
            "mesh" : 3,
            "name" : "yell1",
            "rotation" : [
                0,
                0,
                -0.2640562653541565,
                0.9645072817802429
            ],
            "scale" : [
                0.6295273900032043,
                0.6295055747032166,
                0.6360954642295837
            ],
            "translation" : [
                -2.0801639556884766,
                0.04729652404785156,
                3.817573308944702
            ]
        },
        {
            "mesh" : 1,
            "name" : "blu2",
            "rotation" : [
                -0.02491646446287632,
                -0.8059645295143127,
                0.047175802290439606,
                -0.5895547270774841
            ],
            "scale" : [
                0.6295273900032043,
                0.6295055747032166,
                0.6360954642295837
            ],
            "translation" : [
                2.299452304840088,
                0.018718957901000977,
                3.2753043174743652
            ]
        },
        {
            "name" : "Wind.001",
            "rotation" : [
                -0.0256339218467474,
                -0.805942177772522,
                0.047700658440589905,
                -0.5895123481750488
            ],
            "translation" : [
                2.0117952823638916,
                -1.553816795349121,
                2.97214412689209
            ]
        },
        {
            "mesh" : 2,
            "name" : "pur2",
            "rotation" : [
                -0.02491646446287632,
                -0.8059645295143127,
                0.047175802290439606,
                -0.5895547270774841
            ],
            "scale" : [
                0.6295273900032043,
                0.6295055747032166,
                0.6360954642295837
            ],
            "translation" : [
                2.010258674621582,
                0.6208381652832031,
                2.2303965091705322
            ]
        },
        {
            "mesh" : 3,
            "name" : "yell2",
            "rotation" : [
                0.07186734676361084,
                -0.8031403422355652,
                0.11750069260597229,
                -0.5796501040458679
            ],
            "scale" : [
                0.6295273900032043,
                0.6295055747032166,
                0.6360954642295837
            ],
            "translation" : [
                3.0435686111450195,
                0.3597302734851837,
                2.194263458251953
            ]
        },
        {
            "mesh" : 4,
            "name" : "Cube",
            "scale" : [
                0.046852823346853256,
                0.6688053607940674,
                0.8738628625869751
            ],
            "translation" : [
                -1.020313024520874,
                -1.4104361534118652,
                3.1749212741851807
            ]
        },
        {
            "mesh" : 5,
            "name" : "Plane.001",
            "scale" : [
                1.1463875770568848,
                1,
                1
            ],
            "translation" : [
                -0.23390263319015503,
                -2.165466785430908,
                3.1039459705352783
            ]
        }
    ],
    "materials" : [
        {
            "doubleSided" : true,
            "name" : "Material.001",
            "pbrMetallicRoughness" : {
                "baseColorFactor" : [
                    0,
                    0.8000000715255737,
                    0.055827438831329346,
                    1
                ],
                "metallicFactor" : 0,
                "roughnessFactor" : 0.421875
            }
        },
        {
            "doubleSided" : true,
            "name" : "Material.003",
            "pbrMetallicRoughness" : {
                "baseColorFactor" : [
                    0.022719046100974083,
                    0.5614079833030701,
                    0.8000000715255737,
                    1
                ],
                "metallicFactor" : 0,
                "roughnessFactor" : 0.5
            }
        },
        {
            "doubleSided" : true,
            "name" : "Material.002",
            "pbrMetallicRoughness" : {
                "baseColorFactor" : [
                    0.8000000715255737,
                    0.17399485409259796,
                    0.5321372747421265,
                    1
                ],
                "metallicFactor" : 0,
                "roughnessFactor" : 0.265625
            }
        },
        {
            "doubleSided" : true,
            "name" : "Material.004",
            "pbrMetallicRoughness" : {
                "baseColorFactor" : [
                    0.8000000715255737,
                    0.40299755334854126,
                    0.021641038358211517,
                    1
                ],
                "metallicFactor" : 0,
                "roughnessFactor" : 0.5
            }
        },
        {
            "doubleSided" : true,
            "name" : "Material.008",
            "pbrMetallicRoughness" : {
                "baseColorFactor" : [
                    0.8000000715255737,
                    0,
                    0.2676224708557129,
                    1
                ],
                "metallicFactor" : 0,
                "roughnessFactor" : 0.5
            }
        },
        {
            "doubleSided" : true,
            "name" : "Material.006",
            "pbrMetallicRoughness" : {
                "baseColorFactor" : [
                    0.8000000715255737,
                    0.6788026690483093,
                    0.007860179990530014,
                    1
                ],
                "metallicFactor" : 0,
                "roughnessFactor" : 0.5
            }
        },
        {
            "doubleSided" : true,
            "name" : "Material.007",
            "pbrMetallicRoughness" : {
                "baseColorFactor" : [
                    0.8000000715255737,
                    0.7615782022476196,
                    0.017278874292969704,
                    1
                ],
                "metallicFactor" : 0,
                "roughnessFactor" : 0.5
            }
        },
        {
            "doubleSided" : true,
            "name" : "Material.010",
            "pbrMetallicRoughness" : {
                "baseColorFactor" : [
                    0.17434751987457275,
                    0.0034711051266640425,
                    0.0542789101600647,
                    1
                ],
                "metallicFactor" : 0,
                "roughnessFactor" : 0.5
            }
        }
    ],
    "meshes" : [
        {
            "name" : "birthday",
            "primitives" : [
                {
                    "attributes" : {
                        "POSITION" : 0,
                        "NORMAL" : 1,
                        "TEXCOORD_0" : 2
                    },
                    "indices" : 3,
                    "material" : 0
                }
            ]
        },
        {
            "name" : "blu1",
            "primitives" : [
                {
                    "attributes" : {
                        "POSITION" : 4,
                        "NORMAL" : 5,
                        "TEXCOORD_0" : 6
                    },
                    "indices" : 7,
                    "material" : 1
                }
            ]
        },
        {
            "name" : "Sphere.004",
            "primitives" : [
                {
                    "attributes" : {
                        "POSITION" : 8,
                        "NORMAL" : 9,
                        "TEXCOORD_0" : 10
                    },
                    "indices" : 7,
                    "material" : 2
                }
            ]
        },
        {
            "name" : "Sphere.005",
            "primitives" : [
                {
                    "attributes" : {
                        "POSITION" : 11,
                        "NORMAL" : 12,
                        "TEXCOORD_0" : 13
                    },
                    "indices" : 7,
                    "material" : 3
                }
            ]
        },
        {
            "name" : "Cube.001",
            "primitives" : [
                {
                    "attributes" : {
                        "POSITION" : 14,
                        "NORMAL" : 15,
                        "TEXCOORD_0" : 16
                    },
                    "indices" : 17,
                    "material" : 4
                },
                {
                    "attributes" : {
                        "POSITION" : 18,
                        "NORMAL" : 19,
                        "TEXCOORD_0" : 20
                    },
                    "indices" : 21,
                    "material" : 5
                },
                {
                    "attributes" : {
                        "POSITION" : 22,
                        "NORMAL" : 23,
                        "TEXCOORD_0" : 24
                    },
                    "indices" : 25,
                    "material" : 6
                },
                {
                    "attributes" : {
                        "POSITION" : 26,
                        "NORMAL" : 27,
                        "TEXCOORD_0" : 28
                    },
                    "indices" : 29,
                    "material" : 7
                }
            ]
        },
        {
            "name" : "Plane.001",
            "primitives" : [
                {
                    "attributes" : {
                        "POSITION" : 30,
                        "NORMAL" : 31,
                        "TEXCOORD_0" : 32
                    },
                    "indices" : 33
                }
            ]
        }
    ],
    "accessors" : [
        {
            "bufferView" : 0,
            "componentType" : 5126,
            "count" : 12325,
            "max" : [
                7.94281530380249,
                0.009999999776482582,
                0.22244273126125336
            ],
            "min" : [
                0.020626753568649292,
                -0.009999999776482582,
                -0.6978910565376282
            ],
            "type" : "VEC3"
        },
        {
            "bufferView" : 1,
            "componentType" : 5126,
            "count" : 12325,
            "type" : "VEC3"
        },
        {
            "bufferView" : 2,
            "componentType" : 5126,
            "count" : 12325,
            "type" : "VEC2"
        },
        {
            "bufferView" : 3,
            "componentType" : 5123,
            "count" : 29556,
            "type" : "SCALAR"
        },
        {
            "bufferView" : 4,
            "componentType" : 5126,
            "count" : 559,
            "max" : [
                0.9999997019767761,
                1,
                0.9999994039535522
            ],
            "min" : [
                -0.9999990463256836,
                -2,
                -0.9999987483024597
            ],
            "type" : "VEC3"
        },
        {
            "bufferView" : 5,
            "componentType" : 5126,
            "count" : 559,
            "type" : "VEC3"
        },
        {
            "bufferView" : 6,
            "componentType" : 5126,
            "count" : 559,
            "type" : "VEC2"
        },
        {
            "bufferView" : 7,
            "componentType" : 5123,
            "count" : 2880,
            "type" : "SCALAR"
        },
        {
            "bufferView" : 8,
            "componentType" : 5126,
            "count" : 559,
            "max" : [
                0.9999997019767761,
                1,
                0.9999994039535522
            ],
            "min" : [
                -0.9999990463256836,
                -2,
                -0.9999987483024597
            ],
            "type" : "VEC3"
        },
        {
            "bufferView" : 9,
            "componentType" : 5126,
            "count" : 559,
            "type" : "VEC3"
        },
        {
            "bufferView" : 10,
            "componentType" : 5126,
            "count" : 559,
            "type" : "VEC2"
        },
        {
            "bufferView" : 11,
            "componentType" : 5126,
            "count" : 559,
            "max" : [
                0.9999997019767761,
                1,
                0.9999994039535522
            ],
            "min" : [
                -0.9999990463256836,
                -2,
                -0.9999987483024597
            ],
            "type" : "VEC3"
        },
        {
            "bufferView" : 12,
            "componentType" : 5126,
            "count" : 559,
            "type" : "VEC3"
        },
        {
            "bufferView" : 13,
            "componentType" : 5126,
            "count" : 559,
            "type" : "VEC2"
        },
        {
            "bufferView" : 14,
            "componentType" : 5126,
            "count" : 96,
            "max" : [
                35.27419662475586,
                1,
                1.045453429222107
            ],
            "min" : [
                -1.0419845581054688,
                -1.0494959354400635,
                -1.0688813924789429
            ],
            "type" : "VEC3"
        },
        {
            "bufferView" : 15,
            "componentType" : 5126,
            "count" : 96,
            "type" : "VEC3"
        },
        {
            "bufferView" : 16,
            "componentType" : 5126,
            "count" : 96,
            "type" : "VEC2"
        },
        {
            "bufferView" : 17,
            "componentType" : 5123,
            "count" : 144,
            "type" : "SCALAR"
        },
        {
            "bufferView" : 18,
            "componentType" : 5126,
            "count" : 72,
            "max" : [
                35.591453552246094,
                0.9820498824119568,
                1.108460783958435
            ],
            "min" : [
                -0.6751155853271484,
                -1.0385046005249023,
                -1.0849553346633911
            ],
            "type" : "VEC3"
        },
        {
            "bufferView" : 19,
            "componentType" : 5126,
            "count" : 72,
            "type" : "VEC3"
        },
        {
            "bufferView" : 20,
            "componentType" : 5126,
            "count" : 72,
            "type" : "VEC2"
        },
        {
            "bufferView" : 21,
            "componentType" : 5123,
            "count" : 108,
            "type" : "SCALAR"
        },
        {
            "bufferView" : 22,
            "componentType" : 5126,
            "count" : 48,
            "max" : [
                36.389556884765625,
                0.1253305822610855,
                1.0764541625976562
            ],
            "min" : [
                -2.5340003967285156,
                -0.2275484949350357,
                -1.1133935451507568
            ],
            "type" : "VEC3"
        },
        {
            "bufferView" : 23,
            "componentType" : 5126,
            "count" : 48,
            "type" : "VEC3"
        },
        {
            "bufferView" : 24,
            "componentType" : 5126,
            "count" : 48,
            "type" : "VEC2"
        },
        {
            "bufferView" : 25,
            "componentType" : 5123,
            "count" : 72,
            "type" : "SCALAR"
        },
        {
            "bufferView" : 26,
            "componentType" : 5126,
            "count" : 48,
            "max" : [
                46.653560638427734,
                1.8445687294006348,
                1.1273620128631592
            ],
            "min" : [
                -10.500627517700195,
                0.9303819537162781,
                -1.1994988918304443
            ],
            "type" : "VEC3"
        },
        {
            "bufferView" : 27,
            "componentType" : 5126,
            "count" : 48,
            "type" : "VEC3"
        },
        {
            "bufferView" : 28,
            "componentType" : 5126,
            "count" : 48,
            "type" : "VEC2"
        },
        {
            "bufferView" : 29,
            "componentType" : 5123,
            "count" : 72,
            "type" : "SCALAR"
        },
        {
            "bufferView" : 30,
            "componentType" : 5126,
            "count" : 4,
            "max" : [
                1,
                0,
                1
            ],
            "min" : [
                -1,
                0,
                -1
            ],
            "type" : "VEC3"
        },
        {
            "bufferView" : 31,
            "componentType" : 5126,
            "count" : 4,
            "type" : "VEC3"
        },
        {
            "bufferView" : 32,
            "componentType" : 5126,
            "count" : 4,
            "type" : "VEC2"
        },
        {
            "bufferView" : 33,
            "componentType" : 5123,
            "count" : 6,
            "type" : "SCALAR"
        }
    ],
    "bufferViews" : [
        {
            "buffer" : 0,
            "byteLength" : 147900,
            "byteOffset" : 0
        },
        {
            "buffer" : 0,
            "byteLength" : 147900,
            "byteOffset" : 147900
        },
        {
            "buffer" : 0,
            "byteLength" : 98600,
            "byteOffset" : 295800
        },
        {
            "buffer" : 0,
            "byteLength" : 59112,
            "byteOffset" : 394400
        },
        {
            "buffer" : 0,
            "byteLength" : 6708,
            "byteOffset" : 453512
        },
        {
            "buffer" : 0,
            "byteLength" : 6708,
            "byteOffset" : 460220
        },
        {
            "buffer" : 0,
            "byteLength" : 4472,
            "byteOffset" : 466928
        },
        {
            "buffer" : 0,
            "byteLength" : 5760,
            "byteOffset" : 471400
        },
        {
            "buffer" : 0,
            "byteLength" : 6708,
            "byteOffset" : 477160
        },
        {
            "buffer" : 0,
            "byteLength" : 6708,
            "byteOffset" : 483868
        },
        {
            "buffer" : 0,
            "byteLength" : 4472,
            "byteOffset" : 490576
        },
        {
            "buffer" : 0,
            "byteLength" : 6708,
            "byteOffset" : 495048
        },
        {
            "buffer" : 0,
            "byteLength" : 6708,
            "byteOffset" : 501756
        },
        {
            "buffer" : 0,
            "byteLength" : 4472,
            "byteOffset" : 508464
        },
        {
            "buffer" : 0,
            "byteLength" : 1152,
            "byteOffset" : 512936
        },
        {
            "buffer" : 0,
            "byteLength" : 1152,
            "byteOffset" : 514088
        },
        {
            "buffer" : 0,
            "byteLength" : 768,
            "byteOffset" : 515240
        },
        {
            "buffer" : 0,
            "byteLength" : 288,
            "byteOffset" : 516008
        },
        {
            "buffer" : 0,
            "byteLength" : 864,
            "byteOffset" : 516296
        },
        {
            "buffer" : 0,
            "byteLength" : 864,
            "byteOffset" : 517160
        },
        {
            "buffer" : 0,
            "byteLength" : 576,
            "byteOffset" : 518024
        },
        {
            "buffer" : 0,
            "byteLength" : 216,
            "byteOffset" : 518600
        },
        {
            "buffer" : 0,
            "byteLength" : 576,
            "byteOffset" : 518816
        },
        {
            "buffer" : 0,
            "byteLength" : 576,
            "byteOffset" : 519392
        },
        {
            "buffer" : 0,
            "byteLength" : 384,
            "byteOffset" : 519968
        },
        {
            "buffer" : 0,
            "byteLength" : 144,
            "byteOffset" : 520352
        },
        {
            "buffer" : 0,
            "byteLength" : 576,
            "byteOffset" : 520496
        },
        {
            "buffer" : 0,
            "byteLength" : 576,
            "byteOffset" : 521072
        },
        {
            "buffer" : 0,
            "byteLength" : 384,
            "byteOffset" : 521648
        },
        {
            "buffer" : 0,
            "byteLength" : 144,
            "byteOffset" : 522032
        },
        {
            "buffer" : 0,
            "byteLength" : 48,
            "byteOffset" : 522176
        },
        {
            "buffer" : 0,
            "byteLength" : 48,
            "byteOffset" : 522224
        },
        {
            "buffer" : 0,
            "byteLength" : 32,
            "byteOffset" : 522272
        },
        {
            "buffer" : 0,
            "byteLength" : 12,
            "byteOffset" : 522304
        }
    ],
    "buffers" : [
        {
            "byteLength" : 522316,
            "uri" : "data:application/octet-stream;base64,"
        }
    ]
}
